<svg width="18" height="20" viewBox="0 0 18 20" fill="none" xmlns="http://www.w3.org/2000/svg">
<path d="M3.36343 20C2.78743 20 2.29714 19.8005 1.89257 19.4014C1.488 19.0023 1.28571 18.5191 1.28571 17.9518V2.24477H0V0.976538H5.14286V0H12.8571V0.976538H18V2.24477H16.7143V17.9518C16.7143 18.5352 16.5163 19.0226 16.1203 19.4141C15.7243 19.8055 15.2297 20.0008 14.6366 20H3.36343ZM15.4286 2.24477H2.57143V17.9518C2.57143 18.1792 2.64557 18.3661 2.79386 18.5124C2.94214 18.6586 3.132 18.7318 3.36343 18.7318H14.6379C14.835 18.7318 15.0163 18.6506 15.1817 18.4883C15.3471 18.3259 15.4294 18.1467 15.4286 17.9505V2.24477ZM6.18171 16.1953H7.46743V4.78123H6.18171V16.1953ZM10.5326 16.1953H11.8183V4.78123H10.5326V16.1953Z" fill="#E6E6E6"/>
</svg>
